<svg xmlns="http://www.w3.org/2000/svg" xmlns:xlink="http://www.w3.org/1999/xlink" contentStyleType="text/css" data-diagram-type="DESCRIPTION" height="810px" preserveAspectRatio="none" style="width:845px;height:810px;background:#FFFFFF;" version="1.1" viewBox="0 0 845 810" width="845px" zoomAndPan="magnify"><title>Akua Project - Integration Architecture</title><defs/><g><g class="title" data-source-line="1"><text fill="#000000" font-family="sans-serif" font-size="14" font-weight="bold" lengthAdjust="spacing" textLength="308.0957" x="261.4521" y="22.9951">Akua Project - Integration Architecture</text></g><!--cluster Domain Layer--><g class="cluster" data-entity="Domain Layer" data-source-line="15" data-uid="ent0002" id="cluster_Domain Layer"><path d="M8.5,43.2969 L118.3076,43.2969 A3.75,3.75 0 0 1 120.8076,45.7969 L127.8076,65.5938 L725.5,65.5938 A2.5,2.5 0 0 1 728,68.0938 L728,210.7969 A2.5,2.5 0 0 1 725.5,213.2969 L8.5,213.2969 A2.5,2.5 0 0 1 6,210.7969 L6,45.7969 A2.5,2.5 0 0 1 8.5,43.2969" fill="#E8F4F8" style="stroke:#4A90E2;stroke-width:1.5;"/><line style="stroke:#4A90E2;stroke-width:1.5;" x1="6" x2="127.8076" y1="65.5938" y2="65.5938"/><text fill="#000000" font-family="sans-serif" font-size="14" font-weight="bold" lengthAdjust="spacing" textLength="108.8076" x="10" y="58.292">Domain Layer</text><text fill="#000000" font-family="sans-serif" font-size="14" font-style="italic" lengthAdjust="spacing" textLength="56.3145" x="342.8428" y="80.5889">&#171;Layer&#187;</text></g><!--cluster DomainGroup--><g class="cluster" data-entity="DomainGroup" data-source-line="16" data-uid="ent0003" id="cluster_DomainGroup"><rect fill="none" height="87" rx="2.5" ry="2.5" style="stroke:#181818;stroke-width:1;" width="674" x="30" y="102.2969"/><text fill="#000000" font-family="sans-serif" font-size="14" font-weight="bold" lengthAdjust="spacing" textLength="134.8115" x="299.5942" y="117.292">Business Domain</text></g><!--cluster Adapter Layer--><g class="cluster" data-entity="Adapter Layer" data-source-line="25" data-uid="ent0009" id="cluster_Adapter Layer"><path d="M13.5,237.2969 L126.6846,237.2969 A3.75,3.75 0 0 1 129.1846,239.7969 L136.1846,259.5938 L835.5,259.5938 A2.5,2.5 0 0 1 838,262.0938 L838,511.7969 A2.5,2.5 0 0 1 835.5,514.2969 L13.5,514.2969 A2.5,2.5 0 0 1 11,511.7969 L11,239.7969 A2.5,2.5 0 0 1 13.5,237.2969" fill="#E8F4F8" style="stroke:#4A90E2;stroke-width:1.5;"/><line style="stroke:#4A90E2;stroke-width:1.5;" x1="11" x2="136.1846" y1="259.5938" y2="259.5938"/><text fill="#000000" font-family="sans-serif" font-size="14" font-weight="bold" lengthAdjust="spacing" textLength="112.1846" x="15" y="252.292">Adapter Layer</text><text fill="#000000" font-family="sans-serif" font-size="14" font-style="italic" lengthAdjust="spacing" textLength="56.3145" x="400.3428" y="274.5889">&#171;Layer&#187;</text></g><!--cluster AdapterGroup--><g class="cluster" data-entity="AdapterGroup" data-source-line="26" data-uid="ent0010" id="cluster_AdapterGroup"><rect fill="none" height="87" rx="2.5" ry="2.5" style="stroke:#181818;stroke-width:1;" width="779" x="35" y="296.2969"/><text fill="#000000" font-family="sans-serif" font-size="14" font-weight="bold" lengthAdjust="spacing" textLength="116.1836" x="366.4082" y="311.292">Akua Adapters</text></g><!--cluster Akua API--><g class="cluster" data-entity="Akua API" data-source-line="42" data-uid="ent0019" id="cluster_Akua API"><path d="M473.5919,548.4747 C476.3529,542.0146 480.0148,541.3434 485.2567,545.8313 C489.5921,540.5185 495.3257,540.919 498.9341,546.7255 C500.8862,540.1132 505.8057,539.087 510.1766,544.4557 C513.4789,538.2643 518.7305,538.6353 522.1296,544.3587 C526.3189,537.7604 530.3288,538.2073 534.6234,544.2547 C537.9378,538.6413 543.9661,536.8889 547.7971,543.7073 C551.0293,537.3819 557.0949,536.9715 560.57,543.4653 C564.8098,537.8733 569.1551,538.5936 572.2229,544.6389 C576.3903,537.5792 580.7613,539.198 585.0811,544.4801 C589.5176,538.1524 593.8937,538.9359 597.2962,545.4626 C601.1951,539.0039 606.9196,540.0038 610.1973,546.1009 C618.8314,538.8989 627.1911,542.6652 629,553.2969 C630.3245,552.7967 631.07,553.1238 631.1884,554.6194 C636.4154,557.7209 636.8532,563.1285 631.4963,566.5043 C636.4346,570.8491 635.3497,574.7373 630.1694,577.9044 C637.1757,581.7371 637.3506,587.6376 630.5976,591.8916 C634.9927,594.9439 636.501,599.559 630.6779,602.6872 C636.1221,605.838 636.3451,611.5682 631.1212,615.1001 C636.9598,619.1356 638.2504,623.407 631.5183,627.8345 C637.3967,630.7874 636.9211,636.7194 631.9995,640.0962 C638.8056,644.0716 637.8318,649.6254 631.3544,652.9333 C636.4177,657.028 637.7273,660.8699 631.4919,665.0924 C637.0921,674.4986 633.2934,682.2111 622,682.2969 C622.6598,682.2551 622.8978,682.6879 622.6648,683.2614 C619.0912,690.6918 615.0904,689.9347 610.0341,684.7454 C606.6769,690.8128 602.0546,690.8803 598.212,685.2353 C593.6887,691.5692 588.8565,690.3572 584.9592,684.5519 C581.5122,689.5651 576.0483,690.4414 572.689,684.4543 C569.766,691.5195 564.8928,691.2167 560.4481,685.9668 C556.6797,691.7253 552.3656,693.3089 547.8547,686.7244 C543.8469,691.9804 539.0167,691.6063 535.539,686.1168 C531.2999,691.3005 526.921,690.2818 523.693,684.9751 C519.8144,691.4026 513.4588,690.6579 510.8023,683.7901 C506.4346,689.683 501.8374,690.4504 497.6994,683.5547 C493.5348,689.7367 488.7776,689.9231 485.111,683.0736 C475.0561,690.1045 467.9971,686.5178 465,675.2969 C465.7289,674.8921 466.1075,675.1777 466.1456,675.9623 C459.408,673.0433 458.3974,668.4425 464.0511,663.4494 C458.3702,660.7546 458.2487,657.3538 462.4462,653.1237 C455.336,650.0315 455.2699,643.6754 461.1627,639.3698 C455.9913,635.9786 454.6875,632.1907 460.0026,627.7523 C453.1178,623.6802 454.734,618.2211 460.5022,614.6307 C455.5111,611.293 454.4841,605.5402 461.0003,602.6822 C455.2221,598.426 456.4143,594.2866 461.785,590.7645 C455.964,585.9144 456.308,581.269 463.6128,578.3517 C458.499,574.4521 457.9957,568.3655 465.1138,565.9459 C456.7454,555.7693 460.8939,549.6485 472,546.2969 C473.3241,546.2644 474.0613,547.1963 473.5919,548.4747" fill="#E8F4F8" style="stroke:#181818;stroke-width:1;"/><text fill="#000000" font-family="sans-serif" font-size="14" font-weight="bold" lengthAdjust="spacing" textLength="70.7383" x="511.6309" y="564.292">Akua API</text></g><!--entity AuthDomain--><g class="entity" data-entity="AuthDomain" data-source-line="17" data-uid="ent0004" id="entity_AuthDomain"><rect fill="#F5F5F5" height="36.2969" rx="2.5" ry="2.5" style="stroke:#333333;stroke-width:0.5;" width="112.7705" x="185.5" y="137.2969"/><text fill="#000000" font-family="sans-serif" font-size="14" lengthAdjust="spacing" textLength="92.7705" x="195.5" y="160.292">authorization</text></g><!--entity CommerceDomain--><g class="entity" data-entity="CommerceDomain" data-source-line="18" data-uid="ent0005" id="entity_CommerceDomain"><rect fill="#F5F5F5" height="36.2969" rx="2.5" ry="2.5" style="stroke:#333333;stroke-width:0.5;" width="94.2178" x="594" y="137.2969"/><text fill="#000000" font-family="sans-serif" font-size="14" lengthAdjust="spacing" textLength="74.2178" x="604" y="160.292">commerce</text></g><!--entity OrgDomain--><g class="entity" data-entity="OrgDomain" data-source-line="19" data-uid="ent0006" id="entity_OrgDomain"><rect fill="#F5F5F5" height="36.2969" rx="2.5" ry="2.5" style="stroke:#333333;stroke-width:0.5;" width="107.2949" x="451.5" y="137.2969"/><text fill="#000000" font-family="sans-serif" font-size="14" lengthAdjust="spacing" textLength="87.2949" x="461.5" y="160.292">organization</text></g><!--entity PaymentDomain--><g class="entity" data-entity="PaymentDomain" data-source-line="20" data-uid="ent0007" id="entity_PaymentDomain"><rect fill="#F5F5F5" height="36.2969" rx="2.5" ry="2.5" style="stroke:#333333;stroke-width:0.5;" width="82.3643" x="334" y="137.2969"/><text fill="#000000" font-family="sans-serif" font-size="14" lengthAdjust="spacing" textLength="62.3643" x="344" y="160.292">payment</text></g><!--entity InstrumentDomain--><g class="entity" data-entity="InstrumentDomain" data-source-line="21" data-uid="ent0008" id="entity_InstrumentDomain"><rect fill="#F5F5F5" height="36.2969" rx="2.5" ry="2.5" style="stroke:#333333;stroke-width:0.5;" width="104.082" x="46" y="137.2969"/><text fill="#000000" font-family="sans-serif" font-size="14" lengthAdjust="spacing" textLength="84.082" x="56" y="160.292">instruments</text></g><!--entity Client--><g class="entity" data-entity="Client" data-source-line="33" data-uid="ent0015" id="entity_Client"><rect fill="#FFE6CC" height="36.2969" rx="2.5" ry="2.5" style="stroke:#333333;stroke-width:0.5;" width="99.1191" x="97.5" y="444.7969"/><text fill="#000000" font-family="sans-serif" font-size="14" lengthAdjust="spacing" textLength="79.1191" x="107.5" y="467.792">akua.Client</text></g><g class="entity" data-entity="GMN16" data-source-line="35" data-uid="ent0017" id="entity_GMN16"><path d="M231.5,427.2969 L231.5,465.2969 L196.66,469.2969 L231.5,473.2969 L231.5,497.8281 A0,0 0 0 0 231.5,497.8281 L422.4902,497.8281 A0,0 0 0 0 422.4902,497.8281 L422.4902,437.2969 L412.4902,427.2969 L231.5,427.2969 A0,0 0 0 0 231.5,427.2969" fill="#FEFFDD" style="stroke:#181818;stroke-width:0.5;"/><path d="M412.4902,427.2969 L412.4902,437.2969 L422.4902,437.2969 L412.4902,427.2969" fill="#FEFFDD" style="stroke:#181818;stroke-width:0.5;"/><text fill="#000000" font-family="sans-serif" font-size="13" font-weight="bold" lengthAdjust="spacing" textLength="159.4023" x="237.5" y="444.3638">Shared Infrastructure</text><text fill="#000000" font-family="sans-serif" font-size="13" lengthAdjust="spacing" textLength="87.0645" x="237.5" y="459.4966">&#8226; HTTP Client</text><text fill="#000000" font-family="sans-serif" font-size="13" lengthAdjust="spacing" textLength="169.9902" x="237.5" y="474.6294">&#8226; JWT Token Management</text><text fill="#000000" font-family="sans-serif" font-size="13" lengthAdjust="spacing" textLength="152.0645" x="237.5" y="489.7622">&#8226; OAuth Authentication</text></g><!--entity AuthAdapter--><g class="entity" data-entity="AuthAdapter" data-source-line="27" data-uid="ent0011" id="entity_AuthAdapter"><rect fill="#F5F5F5" height="36.2969" rx="2.5" ry="2.5" style="stroke:#333333;stroke-width:0.5;" width="171.9629" x="51" y="331.2969"/><text fill="#000000" font-family="sans-serif" font-size="14" lengthAdjust="spacing" textLength="151.9629" x="61" y="354.292">AuthorizationProvider</text></g><!--entity CommerceAdapter--><g class="entity" data-entity="CommerceAdapter" data-source-line="28" data-uid="ent0012" id="entity_CommerceAdapter"><rect fill="#F5F5F5" height="36.2969" rx="2.5" ry="2.5" style="stroke:#333333;stroke-width:0.5;" width="154.4902" x="644" y="331.2969"/><text fill="#000000" font-family="sans-serif" font-size="14" lengthAdjust="spacing" textLength="134.4902" x="654" y="354.292">CommerceProvider</text></g><!--entity OrgAdapter--><g class="entity" data-entity="OrgAdapter" data-source-line="29" data-uid="ent0013" id="entity_OrgAdapter"><rect fill="#F5F5F5" height="36.2969" rx="2.5" ry="2.5" style="stroke:#333333;stroke-width:0.5;" width="167.9434" x="441" y="331.2969"/><text fill="#000000" font-family="sans-serif" font-size="14" lengthAdjust="spacing" textLength="147.9434" x="451" y="354.292">OrganizationProvider</text></g><!--entity PaymentAdapter--><g class="entity" data-entity="PaymentAdapter" data-source-line="30" data-uid="ent0014" id="entity_PaymentAdapter"><rect fill="#F5F5F5" height="36.2969" rx="2.5" ry="2.5" style="stroke:#333333;stroke-width:0.5;" width="147.4082" x="258.5" y="331.2969"/><text fill="#000000" font-family="sans-serif" font-size="14" lengthAdjust="spacing" textLength="127.4082" x="268.5" y="354.292">PaymentsProvider</text></g><!--entity AkuaAPI--><g class="entity" data-entity="AkuaAPI" data-source-line="43" data-uid="ent0020" id="entity_AkuaAPI"><rect fill="#F5F5F5" height="101.4844" rx="2.5" ry="2.5" style="stroke:#333333;stroke-width:0.5;" width="146.6904" x="473.5" y="573.2969"/><text fill="#000000" font-family="sans-serif" font-size="14" lengthAdjust="spacing" textLength="62.6104" x="483.5" y="596.292">REST API</text><text fill="#000000" font-family="sans-serif" font-size="14" lengthAdjust="spacing" textLength="126.6904" x="483.5" y="612.5889">/v1/authorizations</text><text fill="#000000" font-family="sans-serif" font-size="14" lengthAdjust="spacing" textLength="96.2842" x="483.5" y="628.8857">/v1/payments</text><text fill="#000000" font-family="sans-serif" font-size="14" lengthAdjust="spacing" textLength="101.4385" x="483.5" y="645.1826">/v1/merchants</text><text fill="#000000" font-family="sans-serif" font-size="14" lengthAdjust="spacing" textLength="121.2148" x="483.5" y="661.4795">/v1/organizations</text></g><!--link AuthDomain to AuthAdapter--><g class="link" data-entity-1="AuthDomain" data-entity-2="AuthAdapter" data-source-line="47" data-uid="lnk21" id="link_AuthDomain_AuthAdapter"><path d="M198,173.5469 C198,210.6169 198,276.3269 198,313.2369" fill="none" id="AuthDomain-to-AuthAdapter" style="stroke:#181818;stroke-width:1;stroke-dasharray:7.0,7.0;"/><polygon fill="none" points="198,331.2369,204,313.2369,192,313.2369,198,331.2369" style="stroke:#181818;stroke-width:1;"/><text fill="#000000" font-family="sans-serif" font-size="13" lengthAdjust="spacing" textLength="76.9082" x="121" y="248.4538">implements</text></g><!--link CommerceDomain to CommerceAdapter--><g class="link" data-entity-1="CommerceDomain" data-entity-2="CommerceAdapter" data-source-line="48" data-uid="lnk22" id="link_CommerceDomain_CommerceAdapter"><path d="M666,173.5469 C666,210.6169 666,276.3269 666,313.2369" fill="none" id="CommerceDomain-to-CommerceAdapter" style="stroke:#181818;stroke-width:1;stroke-dasharray:7.0,7.0;"/><polygon fill="none" points="666,331.2369,672,313.2369,660,313.2369,666,331.2369" style="stroke:#181818;stroke-width:1;"/><text fill="#000000" font-family="sans-serif" font-size="13" lengthAdjust="spacing" textLength="76.9082" x="589" y="248.4538">implements</text></g><!--link OrgDomain to OrgAdapter--><g class="link" data-entity-1="OrgDomain" data-entity-2="OrgAdapter" data-source-line="49" data-uid="lnk23" id="link_OrgDomain_OrgAdapter"><path d="M505,173.5469 C505,210.6169 505,276.3269 505,313.2369" fill="none" id="OrgDomain-to-OrgAdapter" style="stroke:#181818;stroke-width:1;stroke-dasharray:7.0,7.0;"/><polygon fill="none" points="505,331.2369,511,313.2369,499,313.2369,505,331.2369" style="stroke:#181818;stroke-width:1;"/><text fill="#000000" font-family="sans-serif" font-size="13" lengthAdjust="spacing" textLength="76.9082" x="506" y="248.4538">implements</text></g><!--link PaymentDomain to PaymentAdapter--><g class="link" data-entity-1="PaymentDomain" data-entity-2="PaymentAdapter" data-source-line="50" data-uid="lnk24" id="link_PaymentDomain_PaymentAdapter"><path d="M381.67,173.5469 C381.67,210.6169 381.67,276.3269 381.67,313.2369" fill="none" id="PaymentDomain-to-PaymentAdapter" style="stroke:#181818;stroke-width:1;stroke-dasharray:7.0,7.0;"/><polygon fill="none" points="381.67,331.2369,387.67,313.2369,375.67,313.2369,381.67,331.2369" style="stroke:#181818;stroke-width:1;"/><text fill="#000000" font-family="sans-serif" font-size="13" lengthAdjust="spacing" textLength="76.9082" x="304.67" y="248.4538">implements</text></g><!--link InstrumentDomain to AuthAdapter--><g class="link" data-entity-1="InstrumentDomain" data-entity-2="AuthAdapter" data-source-line="53" data-uid="lnk25" id="link_InstrumentDomain_AuthAdapter"><path d="M100.5,173.5469 C100.5,210.6169 100.5,288.3269 100.5,325.2369" fill="none" id="InstrumentDomain-to-AuthAdapter" style="stroke:#181818;stroke-width:1;stroke-dasharray:7.0,7.0;"/><polygon fill="#181818" points="100.5,331.2369,104.5,322.2369,100.5,326.2369,96.5,322.2369,100.5,331.2369" style="stroke:#181818;stroke-width:1;"/><text fill="#000000" font-family="sans-serif" font-size="13" lengthAdjust="spacing" textLength="29.7832" x="70.5" y="248.4538">uses</text></g><!--link PaymentDomain to AuthAdapter--><g class="link" data-entity-1="PaymentDomain" data-entity-2="AuthAdapter" data-source-line="54" data-uid="lnk26" id="link_PaymentDomain_AuthAdapter"><path d="M357.83,173.5369 C357.83,201.6369 357.83,252.2969 357.83,252.2969 C357.83,252.2969 210.5,252.2969 210.5,252.2969 C210.5,252.2969 210.5,296.9569 210.5,325.0569" fill="none" id="PaymentDomain-to-AuthAdapter" style="stroke:#181818;stroke-width:1;stroke-dasharray:7.0,7.0;"/><polygon fill="#181818" points="210.5,331.0569,214.5,322.0569,210.5,326.0569,206.5,322.0569,210.5,331.0569" style="stroke:#181818;stroke-width:1;"/><text fill="#000000" font-family="sans-serif" font-size="13" lengthAdjust="spacing" textLength="29.7832" x="254.17" y="248.3638">uses</text></g><!--link AuthAdapter to Client--><g class="link" data-entity-1="AuthAdapter" data-entity-2="Client" data-source-line="57" data-uid="lnk27" id="link_AuthAdapter_Client"><path d="M122.25,367.5369 C122.25,388.7169 122.25,417.4469 122.25,438.6069" fill="none" id="AuthAdapter-to-Client" style="stroke:#181818;stroke-width:1;"/><polygon fill="#181818" points="122.25,444.6069,126.25,435.6069,122.25,439.6069,118.25,435.6069,122.25,444.6069" style="stroke:#181818;stroke-width:1;"/></g><!--link CommerceAdapter to Client--><g class="link" data-entity-1="CommerceAdapter" data-entity-2="Client" data-source-line="58" data-uid="lnk28" id="link_CommerceAdapter_Client"><path d="M721,367.3269 C721,384.3569 721,407.2969 721,407.2969 C721,407.2969 171.75,407.2969 171.75,407.2969 C171.75,407.2969 171.75,422.4369 171.75,438.6269" fill="none" id="CommerceAdapter-to-Client" style="stroke:#181818;stroke-width:1;"/><polygon fill="#181818" points="171.75,444.6269,175.75,435.6269,171.75,439.6269,167.75,435.6269,171.75,444.6269" style="stroke:#181818;stroke-width:1;"/></g><!--link OrgAdapter to Client--><g class="link" data-entity-1="OrgAdapter" data-entity-2="Client" data-source-line="59" data-uid="lnk29" id="link_OrgAdapter_Client"><path d="M457.25,367.4069 C457.25,377.1969 457.25,387.2969 457.25,387.2969 C457.25,387.2969 147,387.2969 147,387.2969 C147,387.2969 147,416.1769 147,438.5169" fill="none" id="OrgAdapter-to-Client" style="stroke:#181818;stroke-width:1;"/><polygon fill="#181818" points="147,444.5169,151,435.5169,147,439.5169,143,435.5169,147,444.5169" style="stroke:#181818;stroke-width:1;"/></g><!--link PaymentAdapter to Client--><g class="link" data-entity-1="PaymentAdapter" data-entity-2="Client" data-source-line="60" data-uid="lnk30" id="link_PaymentAdapter_Client"><path d="M258.39,349.2969 C240.93,349.2969 227.25,349.2969 227.25,349.2969 C227.25,349.2969 227.25,457.2969 227.25,457.2969 C227.25,457.2969 219.23,457.2969 202.91,457.2969" fill="none" id="PaymentAdapter-to-Client" style="stroke:#181818;stroke-width:1;"/><polygon fill="#181818" points="196.91,457.2969,205.91,461.2969,201.91,457.2969,205.91,453.2969,196.91,457.2969" style="stroke:#181818;stroke-width:1;"/></g><!--link Client to AkuaAPI--><g class="link" data-entity-1="Client" data-entity-2="AkuaAPI" data-source-line="63" data-uid="lnk31" id="link_Client_AkuaAPI"><path d="M147,481.0169 C147,527.9469 147,649.2969 147,649.2969 C147,649.2969 351.59,649.2969 467.17,649.2969" fill="none" id="Client-to-AkuaAPI" style="stroke:#181818;stroke-width:1;"/><polygon fill="#181818" points="473.17,649.2969,464.17,645.2969,468.17,649.2969,464.17,653.2969,473.17,649.2969" style="stroke:#181818;stroke-width:1;"/><text fill="#000000" font-family="sans-serif" font-size="13" lengthAdjust="spacing" textLength="77.2827" x="139.014" y="662.3638">HTTP + JWT</text><text fill="#000000" font-family="sans-serif" font-size="13" lengthAdjust="spacing" textLength="95.4307" x="129.94" y="677.4966">Authentication</text></g><!--link AuthAdapter to AkuaAPI--><g class="link" data-entity-1="AuthAdapter" data-entity-2="AkuaAPI" data-source-line="66" data-uid="lnk32" id="link_AuthAdapter_AkuaAPI"><path d="M209.75,367.3369 C209.75,428.5169 209.75,624.2969 209.75,624.2969 C209.75,624.2969 368.17,624.2969 467.41,624.2969" fill="none" id="AuthAdapter-to-AkuaAPI" style="stroke:#181818;stroke-width:1;stroke-dasharray:7.0,7.0;"/><polygon fill="#181818" points="473.41,624.2969,464.41,620.2969,468.41,624.2969,464.41,628.2969,473.41,624.2969" style="stroke:#181818;stroke-width:1;"/><text fill="#000000" font-family="sans-serif" font-size="13" lengthAdjust="spacing" textLength="117.6411" x="95.1" y="620.3638">/v1/authorizations</text></g><!--link CommerceAdapter to AkuaAPI--><g class="link" data-entity-1="CommerceAdapter" data-entity-2="AkuaAPI" data-source-line="67" data-uid="lnk33" id="link_CommerceAdapter_AkuaAPI"><path d="M643.78,349.2969 C627.3,349.2969 614.75,349.2969 614.75,349.2969 C614.75,349.2969 614.75,487.8169 614.75,567.1269" fill="none" id="CommerceAdapter-to-AkuaAPI" style="stroke:#181818;stroke-width:1;stroke-dasharray:7.0,7.0;"/><polygon fill="#181818" points="614.75,573.1269,618.75,564.1269,614.75,568.1269,610.75,564.1269,614.75,573.1269" style="stroke:#181818;stroke-width:1;"/><text fill="#000000" font-family="sans-serif" font-size="13" lengthAdjust="spacing" textLength="94.1929" x="519.75" y="442.7638">/v1/merchants</text></g><!--link OrgAdapter to AkuaAPI--><g class="link" data-entity-1="OrgAdapter" data-entity-2="AkuaAPI" data-source-line="68" data-uid="lnk34" id="link_OrgAdapter_AkuaAPI"><path d="M541.25,367.3069 C541.25,408.5169 541.25,504.9069 541.25,567.1369" fill="none" id="OrgAdapter-to-AkuaAPI" style="stroke:#181818;stroke-width:1;stroke-dasharray:7.0,7.0;"/><polygon fill="#181818" points="541.25,573.1369,545.25,564.1369,541.25,568.1369,537.25,564.1369,541.25,573.1369" style="stroke:#181818;stroke-width:1;"/><text fill="#000000" font-family="sans-serif" font-size="13" lengthAdjust="spacing" textLength="112.5566" x="428.25" y="466.2938">/v1/organizations</text></g><!--link PaymentAdapter to AkuaAPI--><g class="link" data-entity-1="PaymentAdapter" data-entity-2="AkuaAPI" data-source-line="69" data-uid="lnk35" id="link_PaymentAdapter_AkuaAPI"><path d="M405.54,349.2969 C420.49,349.2969 431.75,349.2969 431.75,349.2969 C431.75,349.2969 431.75,599.2969 431.75,599.2969 C431.75,599.2969 444.77,599.2969 467.36,599.2969" fill="none" id="PaymentAdapter-to-AkuaAPI" style="stroke:#181818;stroke-width:1;stroke-dasharray:7.0,7.0;"/><polygon fill="#181818" points="473.36,599.2969,464.36,595.2969,468.36,599.2969,464.36,603.2969,473.36,599.2969" style="stroke:#181818;stroke-width:1;"/><text fill="#000000" font-family="sans-serif" font-size="13" lengthAdjust="spacing" textLength="89.4067" x="432.75" y="495.0638">/v1/payments</text></g><g class="legend" data-source-line="71"><rect fill="none" height="79.1875" rx="7.5" ry="7.5" style="stroke:#000000;stroke-width:1;" width="372.0244" x="446.9756" y="711.3089"/><text fill="#000000" font-family="sans-serif" font-size="14" font-weight="bold" lengthAdjust="spacing" textLength="58.2354" x="456.8496" y="731.304">Symbol</text><text fill="#000000" font-family="sans-serif" font-size="14" font-weight="bold" lengthAdjust="spacing" textLength="67.6279" x="524.833" y="731.304">Meaning</text><text fill="#000000" font-family="sans-serif" font-size="14" lengthAdjust="spacing" textLength="22.9004" x="456.4258" y="747.6009">**..</text><text fill="#000000" font-family="sans-serif" font-size="14" lengthAdjust="spacing" textLength="25.7305" x="519.959" y="747.6009">&gt;**</text><text fill="#000000" font-family="sans-serif" font-size="14" lengthAdjust="spacing" textLength="149.9531" x="659.5967" y="747.6009">Implements interface</text><text fill="#000000" font-family="sans-serif" font-size="14" lengthAdjust="spacing" textLength="4.4502" x="451.9756" y="763.8978">&#160;</text><text fill="#000000" font-family="sans-serif" font-size="14" font-weight="bold" lengthAdjust="spacing" textLength="23.3516" x="456.4258" y="763.8978">--&gt;</text><text fill="#000000" font-family="sans-serif" font-size="14" lengthAdjust="spacing" textLength="4.4502" x="479.7773" y="763.8978">&#160;</text><text fill="#000000" font-family="sans-serif" font-size="14" lengthAdjust="spacing" textLength="126.2871" x="524.4092" y="763.8978">Uses/Dependency</text><text fill="#000000" font-family="sans-serif" font-size="14" lengthAdjust="spacing" textLength="4.4502" x="451.9756" y="780.1946">&#160;</text><text fill="#000000" font-family="sans-serif" font-size="14" font-weight="bold" lengthAdjust="spacing" textLength="22.3672" x="456.4258" y="780.1946">..&gt;</text><text fill="#000000" font-family="sans-serif" font-size="14" lengthAdjust="spacing" textLength="4.4502" x="478.793" y="780.1946">&#160;</text><text fill="#000000" font-family="sans-serif" font-size="14" lengthAdjust="spacing" textLength="116.8945" x="524.4092" y="780.1946">References/Uses</text><line style="stroke:#000000;stroke-width:1;" x1="451.9756" x2="814" y1="718.3089" y2="718.3089"/><line style="stroke:#000000;stroke-width:1;" x1="451.9756" x2="814" y1="734.6058" y2="734.6058"/><line style="stroke:#000000;stroke-width:1;" x1="451.9756" x2="814" y1="750.9026" y2="750.9026"/><line style="stroke:#000000;stroke-width:1;" x1="451.9756" x2="814" y1="767.1995" y2="767.1995"/><line style="stroke:#000000;stroke-width:1;" x1="451.9756" x2="814" y1="783.4964" y2="783.4964"/><line style="stroke:#000000;stroke-width:1;" x1="451.9756" x2="451.9756" y1="718.3089" y2="783.4964"/><line style="stroke:#000000;stroke-width:1;" x1="519.959" x2="519.959" y1="718.3089" y2="783.4964"/><line style="stroke:#000000;stroke-width:1;" x1="655.1465" x2="655.1465" y1="718.3089" y2="783.4964"/><line style="stroke:#000000;stroke-width:1;" x1="814" x2="814" y1="718.3089" y2="783.4964"/></g><!--SRC=[ZPJTRjCm5CVlynH7tGLIqJQ-DT2er7KT336jMekusBZmKZSrJUp8TeOAcyIpy6Wy2STVgUFiWaoQ4f-VZtt-vt-gcIufZ3SDWPaKtsckOH_EkQQ599e93cEPhvd6zKRIB5CRnciYIGMvg6h1ATTplSKC4Wd2Yv96ICaurTkQWf1wBQB0BSatXHGDNqv4AIJidTad8ceaI47XLmRud7Jvu-FFP4lbQ0HxqwEpLsT73X9oIMKAl1g_VJPzaJqyTlF7i-DjNfk_D2dilRGFvih2zGQdeYACWprk0BjpNUPM51YSD0hLK0hSZW6GyFe1Zwxz1lDSamRLakodrV-R0SUuuk0TXLLKLERK0XF_aK925eJ7cIvbaJ8rsLOeXWtFt7kACAwqR4n4MUoy_Ox8XuumuoMfDPN_eOprdiULrSL_z8GPnyAWM-yOzgOLoE_QuK6K3XaMU_Hb95Ld1mPwiDT9TK2_6CCFzd_csefr7anA5hHshyRxqpUJYMMuq3X9h5Xh42iFj8SEX_CraNI9wgyaCGsmCpaSjiJVtt_Wus8nItUQzKzV5x0G6yhXWd3iK9K2bqP3AoH6M6vri03bItinqzwy5Cqoj6nsFWW3wBjqVJMTBqpWXX_UFJ_i65cvDUys_sLQiIRjPsnNvpHp4kOpPp_nym9Q18UOdwggBcqnxiAxIO63W_jHR0nu1op0AkjEZ8CJRtGtj9FZs9qhkbXdWXpQzKKNnwfyLvUqHgKfpnbLMJfWc2YjfL6qVzgZ49uHniii17V4vFx-A2od8aIXgEPeDIalYk31tkJcnwhXnbLKmGzcZ8PDzK6pm_SPhsmD_DJuzOOdRemBoKbPcYJ6dhLWHiku82j5cxDlnbwP_GsjD-Ew-rZ7iwaOVJpuFyjAMfZHikDkf-V-FSotrQqepTi5nQoyW7iNmkatNXeEyRMrl0AicyeLoMd4ePmM-uAzFpmDhjfsCZdYYgwen1Xo1aO2MNUjVm00]--></g></svg>